# xmcd
#
# Track frame offsets:
#	183
#	14320
#	26983
#	39583
#	52508
#	70958
#	80220
#	93295
#	104758
#	115908
#	121483
#	138245
#	147308
#	159470
#	170595
#	182033
#	195370
#	205870
#	216520
#	235820
#
# Disc length: 3324 seconds
#
# Revision: 5
# Processed by: cddbd v1.5.2PL0 Copyright (c) Steve Scherf et al.
# Submitted via: EasyCDDAExtractor 16.0.6.1
#
DISCID=210cfa14
DTITLE=Varios - C-005 Country Outlaws
DYEAR=1990
DGENRE=Country
TTITLE0=I Always Get Lucky With You - George Jones
TTITLE1=Don't The Girls All Get Prettier At Closing Time - Mickey Gilley
TTITLE2=Older Women Make Good Lovers - Ronnie McDowell
TTITLE3=Behind Closed Doors - Charlie Rich
TTITLE4=Mammas Don't Let Your Babies Grow Up To Be Cowboys - Ed Bruce
TTITLE5=Louisiana Saturday Night - Porter Wagoner
TTITLE6=Baby's Got Her Blue Jeans On - Mel Mcdaniel
TTITLE7=You're Out Doin' (What I'm Here Doin' Without) - Gene Watson
TTITLE8=Let Your Love Flow - Bellamy Brothers
TTITLE9=500 Miles Away From Home - Bobby Bare
TTITLE10=Long Hard Road - Nitty Gritty Dirt Band
TTITLE11=I'll Be Coming Back For More - T.G. Sheppard
TTITLE12=Ruby Don't Take Your Love To Town - Mel Tillis
TTITLE13=Goin' Steady - Faron Young
TTITLE14=Ravishing Ruby - Tom T. Hall
TTITLE15=Bandy, The Rodeo Clown - Moe Bandy
TTITLE16=Wabash Cannonball - Boxcar Willie
TTITLE17=Lonely Street - Rex Allen Jr.
TTITLE18=Midnight Hauler - Razzy Bailey
TTITLE19=Games People Play - Freddy Weller
EXTD=Input by Bill (whall@netcomuk.co.uk) YEAR: 1990
EXTT0=
EXTT1=
EXTT2=
EXTT3=
EXTT4=
EXTT5=
EXTT6=
EXTT7=
EXTT8=
EXTT9=
EXTT10=
EXTT11=
EXTT12=
EXTT13=
EXTT14=
EXTT15=
EXTT16=
EXTT17=
EXTT18=
EXTT19=
PLAYORDER=
